<svg height="72" viewBox="0 0 61 72" width="61" xmlns="http://www.w3.org/2000/svg"><g fill="none" fill-rule="evenodd"><path d="m21.4926844 16.9105454v14.0843894l8.3650147 4.8294661v-23.7433215z" fill="#ee7d00"></path><path d="m9.29530324 38.036941 12.19733926-7.0419852 8.3650147 4.829466-20.56235396 11.8716608z" fill="#e20714"></path><path d="m9.2954708.20933481-.00020944 9.65935103 12.19733924 7.04198526 8.3650147-4.8294661z" fill="#fab900"></path><path d="m38.2226929 16.9105454v14.0843894l-8.3650147 4.8294661v-23.7433215z" fill="#009ee2"></path><path d="m50.420095 38.036941-12.1973392-7.0419852-8.3650148 4.829466 20.562354 11.8716608z" fill="#a61680"></path><path d="m50.4201159.20933481-20.562354 11.87187019 8.3650148 4.8294661 12.1973392-7.04198526z" fill="#76b72a"></path><g class="svg-name" fill="#1d1d1b" transform="translate(0 54.060319)"><path d="m2.63240354 6.06553923c1.32114454 0 2.09188201-.95106489 2.09188201-2.08203835 0-1.18102949-.72068142-2.091882-2.09188201-2.091882h-1.21118879v4.17392035zm-2.63244543-5.42511209h2.63244543c2.09188201 0 3.54329793 1.33119764 3.54329793 3.34307374 0 2.01187611-1.45141592 3.33323009-3.54329793 3.33323009h-2.63244543z"></path><path d="m11.1905634 7.31656342h1.4212567v-6.67630383h-1.4212567z"></path><path d="m21.1696448.53011534c1.3812537 0 2.2521033.67062537 2.7627169 1.46167847l-1.181239.64067551c-.3103894-.47061062-.8806932-.84110914-1.5814779-.84110914-1.2111888 0-2.091882.93116814-2.091882 2.1919941 0 1.26145427.8806932 2.1919941 2.091882 2.1919941.6107257 0 1.1510797-.24986136 1.4413629-.51019469v-.81074042h-1.7817021v-1.22124188h3.1828525v2.55243952c-.680469.76068437-1.6315339 1.26124484-2.8425133 1.26124484-1.9517669 0-3.553351-1.36156637-3.553351-3.46350147 0-2.1119882 1.6015841-3.45323894 3.553351-3.45323894"></path><path d="m29.1468614 7.31656342h1.421466v-6.67630383h-1.421466z"></path><path d="m37.4348442 1.89168171h-1.9517669v-1.25140118h5.3245811v1.25140118h-1.9415044v5.42490266h-1.4313098z"></path><path d="m46.7332263 4.93448201h2.2123097l-1.1012331-3.0630531zm2.6024955 1.23129498h-2.9826283l-.420764 1.15087021h-1.5611622l2.5823893-6.67630384h1.7817021l2.5721268 6.67630384h-1.5513185z"></path><path d="m55.9319988.64036431h1.4214661v5.42511209h2.8226165v1.25119174h-4.2440826z"></path><path d="m10.6653519 14.3165142c0-1.4662862 1.0869912-2.4669882 2.4456254-2.4669882.936823 0 1.5232537.4500855 1.8952183 1.0080324l-.608003.3219086c-.2502802-.4004484-.7223569-.6936638-1.2872153-.6936638-.9655162 0-1.7090266.7579617-1.7090266 1.830711 0 1.0654188.7435104 1.8307109 1.7090266 1.8307109.5648584 0 1.0369351-.2932154 1.2872153-.6936637l.608003.3219085c-.3790856.557528-.9583953 1.0080325-1.8952183 1.0080325-1.3586342 0-2.4456254-1.001121-2.4456254-2.4669882"></path><path d="m19.3523799 12.4857614c-1.0224837 0-1.6663008.7793244-1.6663008 1.8307109 0 1.0438466.6438171 1.8307109 1.6663008 1.8307109 1.0084514 0 1.6663009-.7868643 1.6663009-1.8307109 0-1.0513865-.6578495-1.8307109-1.6663009-1.8307109m0-.6362773c1.4231416 0 2.4028997 1.0509675 2.4028997 2.4669882 0 1.4160206-.9797581 2.4671976-2.4028997 2.4671976-1.4229321 0-2.4026902-1.051177-2.4026902-2.4671976 0-1.4160207.9797581-2.4669882 2.4026902-2.4669882"></path><path d="m23.9480906 11.9280029h.7152359v4.1404101h2.166652v.6291563h-2.8818879z"></path><path d="m29.1469451 11.9280029h.715236v4.1404101h2.1666519v.6291563h-2.8818879z"></path><path d="m34.1433345 11.9280029h3.203587v.6293658h-2.4887699v1.394239h2.4385044v.6295752h-2.4385044v1.4872301h2.4887699v.6291563h-3.203587z"></path><path d="m41.9439307 11.8494631c.8936784 0 1.4876489.4071505 1.8878879.943944l-.5791003.3357315c-.272062-.3644247-.7510502-.6433982-1.3087876-.6433982-.994 0-1.7379292.7579617-1.7379292 1.8307109 0 1.0654189.7439292 1.8378319 1.7379292 1.8378319.5290442 0 .9795487-.2574012 1.2086755-.4720767v-.8580738h-1.5305841v-.6295752h2.2456106v1.7521711c-.4578348.5078909-1.1156843.8438319-1.923702.8438319-1.3659646 0-2.4743186-.9868791-2.4743186-2.4741092 0-1.4874395 1.108354-2.4669882 2.4743186-2.4669882"></path><path d="m46.3129021 11.9280029h3.2037964v.6293658h-2.4887699v1.394239h2.4385044v.6295752h-2.4385044v1.4872301h2.4887699v.6291563h-3.2037964z"></path></g></g></svg>